<?xml version="1.0" encoding="UTF-8" standalone="no"?>
<!-- Created with Inkscape (http://www.inkscape.org/) -->

<svg
   version="1.1"
   id="svg2"
   width="16"
   height="17.6"
   viewBox="0 0 16 17.6"
   xmlns="http://www.w3.org/2000/svg"
   xmlns:svg="http://www.w3.org/2000/svg">
  <defs
     id="defs6" />
  <g
     id="g8">
    <path
       style="fill:#000000;stroke-width:0.32"
       d="M 5.9424086,15.716258 C 5.7476067,15.401062 6.128048,15.069908 7.44,14.412688 8.7124787,13.775241 8.6197158,12.635252 7.2285773,11.814461 5.8944822,11.027325 5.686528,10.546265 6.1301933,9.2735658 6.4602266,8.3268317 6.5363654,8.2927571 8.1166902,8.3845494 c 1.554234,0.090277 1.6759028,0.1621911 2.2445968,1.3267072 0.512286,1.0490084 0.546696,1.4134674 0.23247,2.4622594 -0.6844997,2.284657 -3.9103698,4.741671 -4.6513484,3.542742 z M 2.0499974,7.6314547 c -0.1252754,-0.2026998 0.037749,-0.5626998 0.362276,-0.8 0.8826172,-0.6453853 10.1566606,-0.6154483 10.6960926,0.034528 0.212702,0.2562902 0.293836,0.6162902 0.180297,0.8 C 12.989045,8.1507754 2.3507559,8.1180922 2.0499974,7.6314547 Z M 6.1711363,5.3754106 C 5.0895286,4.0253472 5.4991008,2.2382613 7.0360246,1.6016467 7.898841,1.2442564 8.2044096,1.2589403 9.134543,1.70249 c 2.341152,1.1164177 1.53471,3.8115471 -1.1947705,3.9929206 -0.8960391,0.059542 -1.5609453,-0.06076 -1.7686362,-0.32 z"
       id="path30" />
  </g>
</svg>
