<?xml version="1.0" encoding="UTF-8" standalone="no"?>
<!-- Created with Inkscape (http://www.inkscape.org/) -->

<svg
   version="1.1"
   id="svg2"
   width="21.120001"
   height="29.76"
   viewBox="0 0 21.120001 29.76"
   xmlns="http://www.w3.org/2000/svg"
   xmlns:svg="http://www.w3.org/2000/svg">
  <defs
     id="defs6" />
  <g
     id="g8">
    <path
       style="fill:#000000;stroke-width:0.32"
       d="M 6.8800003,27.09117 C 5.3386793,26.378745 4.744165,25.505227 4.8588121,24.121444 c 0.077469,-0.935047 0.3023405,-1.333721 0.95932,-1.700777 0.7831309,-0.437537 0.9159789,-0.427089 1.5200001,0.119543 0.3640275,0.32944 0.6618682,0.92729 0.6618682,1.328554 0,0.401265 0.1474678,1.117442 0.3277062,1.591504 0.3022026,0.794854 0.4329082,0.847823 1.6795004,0.680619 1.670062,-0.224002 2.584967,-1.205263 3.26903,-3.506129 0.59603,-2.004759 0.370879,-4.108129 -0.526695,-4.920423 C 12.085908,17.113756 10.243774,16.949474 9.0400004,17.383518 7.8159364,17.824878 8.1583885,16.538721 9.6018229,15.273465 10.642474,14.361272 10.78451,14.11183 10.356742,13.94768 10.066945,13.836474 9.5905717,13.821428 9.2981336,13.914245 9.0056955,14.007061 8.4922273,13.882501 8.1570929,13.637445 7.5782103,13.214156 7.6181693,13.130119 8.9566475,11.955944 9.7315371,11.276175 10.70663,10.364897 11.123521,9.930881 11.817692,9.2081962 11.83656,9.1088979 11.34764,8.7513907 10.638492,8.2328493 9.3455355,8.7228019 8.4215214,9.8602109 7.8458554,10.568824 7.620794,10.657603 7.1415213,10.365124 6.646065,10.06277 6.5600003,9.5661408 6.5600003,7.0095069 c 0,-2.65888 0.067051,-3.0136547 0.5885476,-3.1140861 0.3237011,-0.062339 0.9434192,0.220041 1.3771517,0.6275114 0.7006839,0.6582582 1.027506,0.7255872 2.9314524,0.6039094 1.178567,-0.07532 2.934849,-0.143672 3.902849,-0.1518934 1.572325,-0.013354 1.770629,0.05973 1.859678,0.685374 0.101156,0.7107101 -0.264665,1.1832765 -2.098598,2.7109652 -1.578736,1.3151068 -1.468277,1.6844216 0.55892,1.8687126 1.600303,0.145482 1.76,0.229725 1.76,0.928437 0,0.562308 -0.429192,1.063137 -1.6,1.867061 -0.88,0.604242 -1.643759,1.217721 -1.697242,1.363286 -0.05348,0.145565 0.328945,0.516418 0.849839,0.824117 2.878296,1.700252 3.114088,7.100799 0.421239,9.648024 -2.289441,2.165631 -6.3605009,3.224797 -8.5338367,2.220245 z"
       id="path30" />
  </g>
</svg>
