<?xml version="1.0" encoding="UTF-8" standalone="no"?>
<!-- Created with Inkscape (http://www.inkscape.org/) -->

<svg
   version="1.1"
   id="svg2"
   width="105.33333"
   height="97.333336"
   viewBox="0 0 105.33333 97.333336"
   xmlns="http://www.w3.org/2000/svg"
   xmlns:svg="http://www.w3.org/2000/svg">
  <defs
     id="defs6" />
  <g
     id="g8">
    <path
       style="fill:#000000;stroke-width:1.33333"
       d="M 48.666665,84.739684 C 38.689,80.907777 37.120137,78.267715 37.620681,66.151658 38.169721,52.861711 36.84185,52.348055 19.838585,59.273071 c -3.019618,1.229816 -6.505252,-2.677749 -6.505252,-7.292703 0,-7.40094 9.900649,-10.716308 13.87739,-4.647033 2.631896,4.01678 4.688035,4.17889 9.089572,0.71664 2.786874,-2.192155 3.444348,-4.083742 4.052418,-11.659026 0.94615,-11.787031 -0.145396,-13.724282 -7.732959,-13.724282 -7.592147,0 -8.181711,-3.255737 -0.953088,-5.263225 6.016341,-1.670822 17.638544,-1.802968 20.122227,-0.228795 1.315663,0.833876 1.680391,3.997307 1.378732,11.958316 -0.517155,13.648157 0.485852,14.89269 8.697338,10.791675 8.567124,-4.278629 11.059125,-7.440048 13.081749,-16.595859 1.666307,-7.542868 2.003011,-8.018555 5.948368,-8.403704 3.127928,-0.305351 4.718495,0.35758 6.310165,2.630008 2.568892,3.667607 2.887875,16.183521 0.461419,18.104607 -1.560563,1.235538 -14.601029,6.411932 -29.518435,11.717302 l -6.518435,2.318279 0.737386,12.359628 c 0.823629,13.805196 2.208518,17.536822 6.949947,18.726845 4.61356,1.157929 7.09874,4.383178 4.597135,5.966129 -2.900311,1.83524 -6.461046,1.366272 -15.247597,-2.008189 z"
       id="path972" />
  </g>
</svg>
