<?xml version="1.0" encoding="UTF-8" standalone="no"?>
<!-- Created with Inkscape (http://www.inkscape.org/) -->

<svg
   version="1.1"
   id="svg12"
   width="154.66667"
   height="113.33333"
   viewBox="0 0 154.66667 113.33333"
   xmlns="http://www.w3.org/2000/svg"
   xmlns:svg="http://www.w3.org/2000/svg">
  <defs
     id="defs16" />
  <g
     id="g18">
    <path
       style="fill:#000000;stroke-width:1.33333"
       d="M 20.531698,97.114945 C 19.533026,95.49906 22.490704,92.698533 31.877707,86.371793 39.475336,81.251072 45.666381,72.446991 43.939145,69.219622 42.424865,66.390163 39.278012,66.690542 26.000001,70.931978 21.6,72.337483 16.391228,73.999059 14.424952,74.62437 9.9581662,76.044886 5.0429886,73.150617 7.5690864,70.587339 9.185597,68.947037 28.101491,65.407305 35.503407,65.359989 37.796949,65.345322 40.388585,64.471685 41.2626,63.418561 43.204237,61.079032 41.86479,58.1832 34.56713,48.94322 28.383101,41.113269 27.121455,36.23316 29.894747,30.870202 35.029325,20.941027 58.666668,7.7039119 58.666668,14.757681 c 0,0.696832 -2.94088,3.076509 -6.535288,5.288172 -11.067916,6.810156 -13.355478,13.164249 -7.716808,21.43475 12.947236,18.990319 15.612644,21.359143 20.868399,18.546349 4.089025,-2.188379 3.36412,-5.105694 -3.949636,-15.894943 -7.275206,-10.732378 -7.355054,-10.967422 -5.170419,-15.219665 3.910587,-7.611686 12.807119,-14.245678 19.104206,-14.245678 5.274493,0 4.031809,3.161448 -2.48772,6.32888 -7.719658,3.750499 -8.755027,7.150665 -4.097859,13.457428 1.98212,2.684197 6.049812,8.630358 9.039315,13.213691 4.445034,6.814868 6.089965,8.333333 9.027376,8.333333 1.975553,0 4.282144,-0.831674 5.125757,-1.848165 1.229383,-1.481317 0.19626,-2.809123 -5.204814,-6.689409 -8.071994,-5.799149 -8.190553,-5.407861 5.99804,-19.795758 9.103973,-9.231857 10.721943,-10.333333 15.178703,-10.333333 3.76878,0 5.89803,0.949334 8.70832,3.882646 3.30442,3.44907 3.61431,4.507079 2.7751,9.474356 -1.42821,8.453481 -8.66267,14.098134 -8.66267,6.759005 0,-3.656465 -6.07853,-9.449341 -9.9153,-9.449341 -3.917004,0 -12.269961,6.876199 -10.949116,9.013369 1.933301,3.128149 21.564986,13.827416 24.188726,13.182856 1.47163,-0.361527 7.17569,-1.893292 12.67569,-3.403923 12.48247,-3.428438 15.54551,-3.466232 17.28643,-0.21329 2.03184,3.796534 1.67966,11.06681 -0.7007,14.465261 -2.07558,2.963313 -8.51024,6.955726 -11.21067,6.955726 -0.85481,0 -1.32801,-2.713339 -1.18379,-6.787962 0.29703,-8.392191 -1.13118,-9.499491 -10.85794,-8.418219 -8.33397,0.926444 -10.66666,3.001272 -10.66666,9.487517 0,5.565067 -4.81923,13.326382 -11.383729,18.333368 -8.926054,6.808234 -34.41323,18.032787 -36.410728,16.035287 -0.747919,-0.747917 2.452554,-4.649992 3.813913,-4.649992 0.564451,0 5.793266,-2.680765 11.619587,-5.957257 8.572123,-4.82062 11.525139,-7.360689 15.477132,-13.312821 4.78794,-7.211158 6.35289,-14.331274 3.532966,-16.074082 -0.74297,-0.459181 -4.49297,0.07872 -8.333334,1.195332 -6.063937,1.763133 -7.983453,3.255569 -14.591591,11.345061 -6.312333,7.727377 -9.266357,10.106806 -17.333333,13.961781 -5.348322,2.555809 -11.909469,5.045441 -14.580325,5.532514 -2.984587,0.54429 -6.55394,2.637315 -9.261556,5.430864 -4.415829,4.555981 -9.548418,5.909621 -11.350644,2.993556 z M 60.328773,74.584296 c 6.968016,-7.229191 7.46125,-9.679103 2.078203,-10.322499 -2.754411,-0.329215 -4.309623,0.878832 -8.322875,6.464988 -6.625981,9.222879 -7.058432,10.606546 -3.314968,10.606546 1.924629,0 5.460648,-2.496403 9.55964,-6.749035 z"
       id="path833" />
  </g>
</svg>
