<?xml version="1.0" encoding="UTF-8" standalone="no"?>
<!-- Created with Inkscape (http://www.inkscape.org/) -->

<svg
   version="1.1"
   id="svg2"
   width="156"
   height="101.33333"
   viewBox="0 0 156 101.33333"
   xmlns="http://www.w3.org/2000/svg"
   xmlns:svg="http://www.w3.org/2000/svg">
  <defs
     id="defs6" />
  <g
     id="g8">
    <path
       style="fill:#000000;stroke-width:1.33333"
       d="M 44.777265,90.845616 C 44.3318,90.124838 48.518123,87.346268 54.080205,84.671013 59.642287,81.99576 66.515251,77.484747 69.353457,74.64654 74.254221,69.745776 78.762236,59.651123 76.887319,57.776206 76.407023,57.295909 71.866375,57.685553 66.796991,58.642074 59.324195,60.05209 57.247333,61.002667 55.822432,63.665122 50.406883,73.784167 27.380927,89.412158 16.666667,90.240608 L 10,90.756089 20.075607,85.491584 c 14.792622,-7.729148 26.367797,-21.79191 16.257726,-19.751627 -2.016666,0.406977 -4.566666,1.075674 -5.666666,1.485994 -1.1,0.410319 -2.894984,0.177321 -3.988855,-0.517772 -3.024883,-1.922144 -0.01603,-4.122774 6.827409,-4.993472 7.304518,-0.929358 9.161446,-2.381505 9.161446,-7.16439 0,-4.757769 -3.371474,-6.701029 -9.812551,-5.655787 -4.153956,0.674094 -4.845628,0.42599 -4.795272,-1.720076 0.140644,-5.993933 3.715081,-15.48978 8.380609,-22.263917 8.868619,-12.876839 20.009691,-17.7947262 26.227214,-11.577204 4.539368,4.539368 3.251101,9.496602 -3.094958,11.909369 -3.210156,1.220498 -4.153421,0.963464 -7.03347,-1.916585 -1.829364,-1.829364 -3.765235,-3.326118 -4.301932,-3.326118 -2.656884,0 -11.806698,12.519644 -13.522723,18.503073 l -1.194103,4.163593 h 7.610251 c 8.938639,0 12.956949,2.286238 15.744568,8.957945 1.4497,3.46962 2.486411,4.392847 4.192488,3.73355 1.2466,-0.481736 5.162951,-1.427666 8.703001,-2.102066 3.540051,-0.674401 6.990051,-1.568324 7.666667,-1.986496 4.028348,-2.489656 -3.178444,-9.936266 -9.616268,-9.936266 -2.759036,0 -3.813151,-0.648141 -3.794855,-2.333333 0.04517,-4.160515 7.737271,-14.75034 14.727898,-20.276112 5.840002,-4.616257 7.746284,-5.390554 13.271261,-5.390554 9.576898,0 14.249548,6.322988 10.428708,14.112039 C 99.00338,34.478086 92,35.355787 92,28.755424 92,21.654133 80.879015,20.319158 75.451859,26.768966 c -5.1113,6.074434 -4.496875,8.233958 3.111566,10.936237 3.609884,1.282117 8.071148,4.122949 9.91392,6.31296 2.546043,3.025799 4.472732,3.981835 8.024552,3.981835 2.570732,0 5.044873,-0.6 5.498103,-1.333333 0.45323,-0.733333 2.63863,-1.333333 4.85647,-1.333333 6.01088,0 4.03611,-3.629076 -3.1898,-5.861952 -4.043821,-1.249577 -2.55293,-5.387594 3.91122,-10.855698 10.4864,-8.870576 12.61171,-9.930832 19.92552,-9.940231 8.33583,-0.01067 10.49807,2.011606 9.25207,8.653356 -1.62748,8.675242 -12.08687,11.576296 -13.0064,3.6075 -0.30144,-2.61234 -1.27647,-3.724823 -3.54623,-4.046141 -3.282,-0.464618 -9.53618,4.259544 -9.53618,7.203257 0,0.895724 2.90532,3.492928 6.45627,5.771566 5.44488,3.493972 7.06362,3.949795 10.33333,2.909774 7.35036,-2.337982 16.53209,-2.595927 18.60533,-0.522687 3.78452,3.784514 1.81153,12.294842 -3.51072,15.143223 C 138.88481,59.357318 136,56.891065 136,51.794892 c 0,-8.293147 -9.82687,-6.044908 -11.28432,2.581684 -0.64845,3.838126 -2.53742,6.817443 -7.13221,11.249015 -7.56048,7.291927 -23.601737,18.298086 -27.071827,18.574406 -1.381404,0.11 -3.111643,0.26 -3.844976,0.333334 -2.620196,0.26202 -1.62227,-2.52914 1.613657,-4.513335 14.093636,-8.641881 19.150486,-13.836076 22.482216,-23.092825 1.57744,-4.382694 1.55907,-5.242407 -0.13502,-6.319327 -1.07847,-0.685575 -2.86085,-0.87223 -3.96085,-0.414788 -1.1,0.457441 -4.55576,1.256889 -7.679451,1.776553 -6.646082,1.105652 -5.86953,0.461449 -9.680211,8.030389 -4.129701,8.202588 -18.308591,21.791226 -27.623377,26.473447 -8.923618,4.485593 -15.745864,6.249901 -16.906366,4.372171 z"
       id="path30" />
  </g>
</svg>
