<?xml version="1.0" encoding="UTF-8" standalone="no"?>
<!-- Created with Inkscape (http://www.inkscape.org/) -->

<svg
   version="1.1"
   id="svg32"
   width="132"
   height="104"
   viewBox="0 0 132 104"
   xmlns="http://www.w3.org/2000/svg"
   xmlns:svg="http://www.w3.org/2000/svg">
  <defs
     id="defs36" />
  <g
     id="g38">
    <path
       style="fill:#000000;stroke-width:1.33333"
       d="m 29.333333,93.512117 c 0,-0.794 1.771712,-2.359825 3.937139,-3.47961 C 42.021079,85.507392 49.740525,68.210929 44.828784,64.134545 43.033937,62.644956 41.065831,63.207497 31.807075,67.856533 20.758164,73.404444 12,75.031333 12,71.535832 12,69.421247 19.288801,66.040176 28.666667,63.804633 40.476617,60.989319 44,59.015055 44,55.212876 44,53.21286 42.383116,50.177988 40.102564,47.897436 36.535347,44.330219 35.41232,44 26.84792,44 21.701456,44 17.136215,43.426411 16.70294,42.725357 16.269665,42.024305 16.855669,39.474305 18.005169,37.058691 26.90898,18.347825 29.046031,16.249815 40.394305,15.078569 c 6.22675,-0.642657 7.673628,-0.343969 10.103276,2.085679 4.107388,4.107388 3.848611,11.44396 -0.504256,14.296068 -4.021977,2.6353 -6.937426,0.934141 -7.580844,-4.423407 -0.528774,-4.402956 -3.67761,-6.344428 -8.376958,-5.164966 -5.157062,1.29434 -11.368856,7.851033 -11.368856,12.00009 0,3.732359 0.729288,4.03184 13.317308,5.468742 9.388874,1.071722 15.870578,4.180812 18.554406,8.900018 1.217684,2.141158 3.269238,3.743652 4.794952,3.745399 4.74952,0.0055 15.975304,-4.71426 16.394884,-6.892957 0.5292,-2.747919 -6.523454,-5.26752 -11.793886,-4.213435 -4.924304,0.984861 -4.952211,-0.418237 -0.139484,-7.013083 12.29262,-16.844485 23.696902,-24.2536958 30.485205,-19.805829 3.791017,2.483971 3.932975,7.158708 0.334675,11.021031 -3.527859,3.78671 -4.168588,3.685256 -6.886047,-1.09035 C 86.479455,21.796207 84.464399,20 83.250777,20 c -2.44743,0 -13.880776,11.737363 -13.903224,14.272916 -0.0079,0.883437 2.23578,1.947616 4.98578,2.364841 2.75,0.417227 6.8,1.409486 9,2.205019 5.647404,2.042137 9.444088,1.607215 17.277957,-1.979251 9.00706,-4.123566 16.38044,-5.473553 18.82311,-3.44631 2.00149,1.661089 2.63784,12.777381 0.87852,15.346708 -1.67996,2.453414 -5.72168,3.289534 -8.55958,1.770737 -2.3036,-1.232849 -2.58836,-2.279868 -1.8596,-6.837313 l 0.86054,-5.381538 -3.97292,0.794586 c -2.18511,0.437022 -6.08585,1.67742 -8.668309,2.756441 l -4.69538,1.961855 0.801256,8.580456 c 0.719742,7.707557 0.42131,9.278537 -2.933536,15.442496 -4.50953,8.285492 -13.564736,16.036788 -19.943782,17.071965 -6.31583,1.024917 -6.048741,-1.356248 0.624662,-5.568983 6.70447,-4.232346 9.161396,-7.99596 10.0802,-15.44124 0.812669,-6.585241 -1.402552,-12.291136 -5.044103,-12.992434 -1.245192,-0.239803 -5.890416,1.19144 -10.322719,3.18054 -6.253497,2.806402 -8.223661,4.394822 -8.794994,7.09086 -2.665903,12.579981 -9.747642,24.861626 -16.865926,29.25006 -5.514442,3.399664 -11.685396,5.020748 -11.685396,3.069706 z"
       id="path656" />
  </g>
</svg>
