<?xml version="1.0" encoding="UTF-8" standalone="no"?>
<!-- Created with Inkscape (http://www.inkscape.org/) -->

<svg
   version="1.1"
   id="svg42"
   width="102.66667"
   height="93.333336"
   viewBox="0 0 102.66667 93.333336"
   xmlns="http://www.w3.org/2000/svg"
   xmlns:svg="http://www.w3.org/2000/svg">
  <defs
     id="defs46" />
  <g
     id="g48">
    <path
       style="fill:#000000;stroke-width:1.33333"
       d="m 37.333335,84.847813 c 0,-1.000371 2.752634,-2.870097 6.116965,-4.154947 8.119572,-3.100892 21.210645,-14.147772 24.570628,-20.73388 1.482572,-2.906083 3.056094,-7.913983 3.496716,-11.128667 0.885276,-6.458787 -0.65238,-8.789894 -8.642158,-13.101638 -2.503073,-1.350801 -4.208817,-3.322973 -4.208817,-4.866209 0,-4.808021 19.191646,-20.195805 25.188208,-20.195805 0.700622,0 3.119894,1.553336 5.376159,3.451859 4.825392,4.060299 5.449992,9.581864 1.48936,13.166187 -3.121542,2.824957 -9.127796,1.849449 -10.207021,-1.657778 -1.165538,-3.787717 -2.6201,-6.106954 -4.149943,-6.616902 -1.914167,-0.638056 -11.030097,7.424633 -11.030097,9.755697 0,1.00255 3.349582,3.407423 7.443515,5.344163 C 94.098839,44.196808 86.476244,62.689582 53.731656,80.314428 41.651088,86.81682 37.333335,88.010481 37.333335,84.847813 Z M 9.8406949,82.408908 C 8.5978033,80.397866 13.51176,77.613341 20.000001,76.652072 32.281188,74.832545 43.717067,57.204888 38.139103,48.691839 37.068585,47.058023 32.699349,44.34358 28.429688,42.659744 17.589734,38.384766 16.678615,37.357193 18.590778,31.563281 20.298894,26.387639 36.611607,10.048664 42.187268,7.9288016 48.349307,5.5859987 53.316182,6.4443847 57.435899,10.564103 c 5.99946,5.99946 4.725706,13.435898 -2.301376,13.435898 -1.868535,0 -4.359931,-1.78452 -6.610089,-4.73463 -3.109369,-4.076593 -4.269125,-4.678855 -8.344546,-4.333333 -3.805631,0.322649 -5.607292,1.550096 -9.192983,6.263048 -6.569026,8.634186 -5.7131,12.152774 3.679763,15.126987 20.469954,6.481732 18.596562,27.301301 -3.648486,40.54672 -6.554608,3.902825 -20.013372,7.423692 -21.1774871,5.540115 z"
       id="path517" />
  </g>
</svg>
