<?xml version="1.0" encoding="UTF-8" standalone="no"?>
<!-- Created with Inkscape (http://www.inkscape.org/) -->

<svg
   version="1.1"
   id="svg52"
   width="89.333336"
   height="110.66667"
   viewBox="0 0 89.333336 110.66667"
   xmlns="http://www.w3.org/2000/svg"
   xmlns:svg="http://www.w3.org/2000/svg">
  <defs
     id="defs56" />
  <g
     id="g58">
    <path
       style="fill:#000000;stroke-width:1.33333"
       d="M 8.7561209,100.04388 C 9.4653207,99.334683 14.23532,96.696755 19.356122,94.181822 31.032325,88.447391 39.641233,81.0695 42.818499,74.074412 47.907131,62.871243 44.737975,58.38265 30.998517,57.333335 20.081371,56.499567 16.758375,53.103348 17.134341,43.163657 17.923598,22.297419 44.748429,1.8145257 57.82019,12.096774 c 4.567451,3.592757 4.825705,10.576511 0.538801,14.570368 -4.650997,4.333066 -8.222394,3.020694 -9.072398,-3.333808 -0.93317,-6.976246 -2.100644,-8.666667 -5.985553,-8.666667 -6.227992,0 -20.634373,15.802677 -20.634373,22.634299 0,6.086074 5.43963,9.827855 15.189839,10.448702 6.774949,0.431396 8.802107,0.08992 10.290259,-1.733387 15.085352,-18.482826 21.52071,-21.381234 30.969928,-13.948477 4.129301,3.248108 4.782022,9.579856 1.474371,14.302189 -3.500419,4.997549 -11.257729,3.180718 -11.257729,-2.636658 0,-1.32 -1.230692,-3.630692 -2.734869,-5.13487 -3.310184,-3.310184 -6.97332,-2.49106 -11.417276,2.553048 -3.534415,4.011736 -3.942782,8.684254 -1.181188,13.515155 2.7143,4.748171 2.435065,11.592678 -0.740574,18.152672 -5.529321,11.422053 -30.216971,28.51044 -41.192761,28.51294 -2.9623099,6.8e-4 -4.1409292,-0.45801 -3.3105461,-1.2884 z"
       id="path378" />
  </g>
</svg>
