<?xml version="1.0" encoding="UTF-8" standalone="no"?>
<!-- Created with Inkscape (http://www.inkscape.org/) -->

<svg
   version="1.1"
   id="svg62"
   width="78.666664"
   height="101.33333"
   viewBox="0 0 78.666664 101.33333"
   xmlns="http://www.w3.org/2000/svg"
   xmlns:svg="http://www.w3.org/2000/svg">
  <defs
     id="defs66" />
  <g
     id="g68">
    <path
       style="fill:#000000;stroke-width:1.33333"
       d="m 16.691605,90.707016 c -0.730503,-1.181979 7.254704,-5.373685 10.236875,-5.373685 2.237559,0 16.758425,-14.69184 18.372686,-18.589013 0.856922,-2.068791 1.364718,-5.763433 1.128436,-8.210316 C 45.909858,53.15165 40.081759,48.698736 31.704507,47.283409 19.460499,45.214797 15.042615,34.122898 22.117086,23.212443 33.045234,6.3587329 58.59381,5.6190905 63.99997,21.999915 c 2.227574,6.749617 0.768185,10.000084 -4.489823,10.000084 -5.573522,0 -7.510149,-2.065992 -7.510149,-8.011826 0,-8.945245 -6.112498,-12.208339 -15.26599,-8.149594 -6.882334,3.051694 -8.963933,5.6281 -9.124524,11.293475 -0.206738,7.29339 3.164196,10.909105 13.322044,14.289418 9.629474,3.204484 16.401803,8.611854 16.401803,13.096033 0,5.025833 -4.242915,15.283102 -8.473221,20.484051 -8.438657,10.374909 -29.198809,20.510528 -32.168505,15.70546 z"
       id="path239" />
  </g>
</svg>
