<?xml version="1.0" encoding="UTF-8" standalone="no"?>
<!-- Created with Inkscape (http://www.inkscape.org/) -->

<svg
   version="1.1"
   id="svg72"
   width="132"
   height="96"
   viewBox="0 0 132 96"
   xmlns="http://www.w3.org/2000/svg"
   xmlns:svg="http://www.w3.org/2000/svg">
  <defs
     id="defs76" />
  <g
     id="g78">
    <path
       style="fill:#000000;stroke-width:1.33333"
       d="m 52,87.601184 c 0,-0.952681 2.25,-2.527916 5,-3.500521 C 62.894412,82.01596 76.807856,74.319339 80.804239,70.932665 88.563176,64.357472 88.020157,57.477273 79.157585,50.069081 72.48834,44.494283 68.012701,38.080784 68.004984,34.087632 67.994851,28.858217 73.72292,19.74284 79.840355,15.253297 c 10.572156,-7.7588319 19.291338,-5.6371759 21.036815,5.11893 0.64319,3.963493 0.28139,4.96082 -2.300987,6.342865 -3.275615,1.753056 -3.195558,1.813851 -9.63843,-7.319239 -3.191834,-4.524582 -4.937932,-4.293313 -10.836482,1.435286 -6.525539,6.337522 -5.788895,9.429368 4.695476,19.707861 9.093109,8.914552 9.818846,8.81338 15.14125,-2.110795 3.522093,-7.229053 8.415273,-10.72685 15.257113,-10.90625 3.96775,-0.10404 6.24238,0.656277 8.3908,2.804694 5.54058,5.540579 2.88518,16.193118 -4.51918,18.129402 -3.13093,0.818757 -10.40006,-5.485887 -10.40006,-9.020154 0,-3.13409 -4.86365,-2.557254 -7.257731,0.860778 -1.354167,1.933344 -2.085784,5.988441 -2.104888,11.666666 -0.03501,10.405855 -3.233448,18.380675 -9.026206,22.505482 C 83.534335,77.8465 57.110924,89.333333 54.084689,89.333333 52.938111,89.333333 52,88.553867 52,87.601184 Z M 16.024428,81 c 0.01344,-0.916667 6.012784,-4.908697 13.331887,-8.87118 C 43.039536,64.720873 48.304324,59.451744 47.001365,54.469221 46.188423,51.360523 41.638185,48 38.241868,48 c -3.623821,0 -15.879477,-3.810441 -18.38118,-5.714947 -5.028595,-3.828186 -4.37762,-7.231436 2.843767,-14.866986 7.040933,-7.44475 7.556725,-10.084734 1.970322,-10.084734 -4.210993,0 -10.00811,-2.270678 -10.00811,-3.920086 0,-3.161715 5.011364,-3.7261159 17.082674,-1.923924 6.828806,1.01951 15.828806,1.701484 20,1.515499 5.975982,-0.266457 7.583992,0.0824 7.583992,1.64537 0,1.362688 -2.074845,2.28032 -6.62896,2.931757 C 38.411431,19.626465 28,26.569044 28,34.055389 c 0,3.52746 2.346984,5.173472 9.333333,6.545754 13.823535,2.715264 18.39008,4.687097 19.725328,8.517393 0.726028,2.082684 1.011896,5.398704 0.635263,7.368933 C 56.895661,60.663307 48.582113,68.217535 40,72.565315 36.7,74.237127 30.852941,77.193853 27.006537,79.135819 19.3553,82.998763 15.986752,83.570564 16.024428,81 Z"
       id="path100" />
  </g>
</svg>
