<?xml version="1.0" encoding="UTF-8" standalone="no"?>
<!-- Created with Inkscape (http://www.inkscape.org/) -->

<svg
   version="1.1"
   id="svg2"
   width="121.33333"
   height="102.66667"
   viewBox="0 0 121.33333 102.66667"
   xmlns="http://www.w3.org/2000/svg"
   xmlns:svg="http://www.w3.org/2000/svg">
  <defs
     id="defs6" />
  <g
     id="g8">
    <path
       style="fill:#000000;stroke-width:1.33333"
       d="m 60.011577,94.453067 c -0.01513,-2.891603 8.615946,-13.912498 20.857994,-26.633282 12.37946,-12.863571 12.920488,-17.528293 2.632647,-22.698596 -11.236969,-5.6473 -11.898301,-7.418333 -7.168887,-19.198127 2.624583,-6.537181 3.96834,-8.042729 10.738101,-12.030991 4.255956,-2.507305 9.496491,-4.5587374 11.645632,-4.5587374 5.078616,0 11.704566,6.0186264 12.773436,11.6026474 0.72081,3.765618 0.41824,4.36945 -2.56451,5.118076 -5.98342,1.501743 -8.0476,0.281429 -9.530414,-5.634258 -0.767568,-3.06221 -1.77478,-5.938589 -2.238247,-6.391951 -2.836793,-2.774941 -14.850961,5.457491 -16.221265,11.115249 -1.416565,5.848764 1.199295,9.222485 10.963296,14.139558 5.131551,2.584208 10.00448,5.95867 10.82874,7.498807 3.49348,6.52763 -2.959887,16.9018 -15.738694,25.300878 -4.944175,3.249637 -13.034197,10.110509 -17.977829,15.246382 -5.544705,5.760317 -8.992859,8.489854 -9,7.124345 z M 10.176253,93.731811 C 9.7631353,93.318694 14.457994,88.110035 20.609273,82.157012 33.181844,69.989656 34.514151,67.0051 32.231371,56.121875 c -1.14272,-5.447951 -2.80373,-8.611651 -6.518774,-12.4162 -6.888258,-7.054216 -6.892483,-12.93773 -0.01563,-21.764476 2.733333,-3.508353 4.969697,-6.966447 4.969697,-7.684651 0,-0.821746 -4.410139,-0.972905 -11.896529,-0.407757 C 7.0421395,14.734138 2.5225101,13.543047 7.6293222,10.912774 11.18901,9.0793492 50.943273,7.6642361 55.04796,9.2248354 c 7.129146,2.7104966 7.979297,11.3968216 1.529073,15.6231706 -4.335388,2.840655 -6.577034,0.875262 -6.577034,-5.766504 0,-6.841827 -3.225526,-8.534816 -9.681404,-5.081502 -3.657893,1.956645 -5.490135,4.126998 -6.881435,8.151298 -1.779424,5.146943 -1.702877,5.844738 1.243234,11.333334 10.435695,19.441679 11.114611,23.021557 6.342714,33.444753 -4.154625,9.074896 -9.899669,15.641548 -18.747993,21.42917 -7.714782,5.046181 -10.977101,6.495019 -12.098862,5.373256 z"
       id="path30" />
  </g>
</svg>
