<?xml version="1.0" encoding="UTF-8" standalone="no"?>
<!-- Created with Inkscape (http://www.inkscape.org/) -->

<svg
   version="1.1"
   id="svg12"
   width="97.333336"
   height="109.33333"
   viewBox="0 0 97.333336 109.33333"
   xmlns="http://www.w3.org/2000/svg"
   xmlns:svg="http://www.w3.org/2000/svg">
  <defs
     id="defs16" />
  <g
     id="g18">
    <path
       style="fill:#000000;stroke-width:1.33333"
       d="m 17.333334,100.09333 c 0,-0.682006 4.35,-2.582568 9.666667,-4.223473 C 47.929987,89.410147 55.969627,83.056647 57.017848,72.147603 57.911528,62.846898 54.501773,57.929182 40.748617,48.683315 34.22653,44.298695 29.295378,39.998856 28.854165,38.311655 28.43965,36.726547 28.462019,31.97082 28.903875,27.743374 29.455751,22.46331 29.18021,19.422065 28.023698,18.028554 26.145499,15.765458 19.727345,15.338521 16.17384,17.240299 c -1.274637,0.682164 -3.117748,0.745731 -4.095804,0.14126 -1.307909,-0.808333 -0.266121,-2.194443 3.93856,-5.240299 4.286931,-3.1054364 7.151853,-4.1412602 11.454055,-4.1412602 5.898691,0 12.529354,2.2301032 12.529354,4.2140202 0,1.688624 5.234747,1.322618 12.46744,-0.871705 12.311786,-3.735265 24.065894,2.118021 24.065894,11.984283 0,5.368129 -3.271793,9.3682 -8.757113,10.706381 -2.816963,0.687217 -3.884674,0.255729 -5.131351,-2.073709 -1.275503,-2.383298 -1.117328,-3.954738 0.83352,-8.280948 2.400463,-5.323275 2.398393,-5.34704 -0.683027,-7.842222 -4.143477,-3.355185 -7.450286,-3.153733 -14.320363,0.872399 -6.563791,3.846638 -8.475,6.687582 -8.475,12.597784 0,4.745756 4.55855,9.756416 15.248317,16.76062 3.339121,2.187876 3.530856,2.139521 7.707353,-1.943779 5.158862,-5.043743 12.429784,-7.451992 18.857942,-6.246062 4.927927,0.924483 10.18639,6.089863 10.18639,10.006073 0,3.331015 -3.853521,8.116863 -6.535622,8.116863 -3.362884,0 -6.797712,-4.24011 -6.797712,-8.391409 0,-3.333385 -3.112686,-6.275257 -6.639618,-6.275257 -0.814877,0 -2.954322,1.472727 -4.754322,3.272727 -3.837538,3.837538 -4.291186,9.964093 -1.272727,17.188282 5.261769,12.593186 0.973016,21.809576 -13.334843,28.656147 -16.713013,7.997478 -35.331825,13.078962 -35.331825,9.642842 z"
       id="path636" />
  </g>
</svg>
