<?xml version="1.0" encoding="UTF-8" standalone="no"?>
<!-- Created with Inkscape (http://www.inkscape.org/) -->

<svg
   version="1.1"
   id="svg22"
   width="77.333336"
   height="110.66667"
   viewBox="0 0 77.333336 110.66667"
   xmlns="http://www.w3.org/2000/svg"
   xmlns:svg="http://www.w3.org/2000/svg">
  <defs
     id="defs26" />
  <g
     id="g28">
    <path
       style="fill:#000000;stroke-width:1.33333"
       d="m 16.000001,100.10871 c 0,-0.673544 4.05,-2.556928 9,-4.185299 14.532878,-4.780791 21.192986,-8.735936 26.92813,-15.991439 5.721191,-7.23785 7.823583,-14.282502 5.9093,-19.80076 C 56.642383,56.68628 54.226483,55.200891 36.950669,47.289231 23.684339,41.21376 22.37499,35.263006 32.005641,24.814983 c 6.289342,-6.823129 5.335311,-8.6805 -3.998059,-7.783681 -7.115684,0.683727 -13.340915,-0.382643 -13.340915,-2.285272 0,-1.65429 42.432134,-0.698483 46.918932,1.056874 8.662499,3.389005 7.010307,13.53043 -2.204312,13.53043 -5.342409,0 -6.714619,-1.634892 -6.714619,-8 0,-4.011976 -0.477861,-4.722329 -3.406216,-5.063431 -4.517258,-0.526181 -9.527629,3.59649 -11.711844,9.63683 -2.587804,7.156447 -0.01969,10.218392 13.053419,15.563519 19.399177,7.931627 22.15891,13.280039 14.837675,28.755665 -6.527272,13.797348 -16.918412,22.068495 -35.9518,28.616941 -7.821085,2.690852 -13.487901,3.222682 -13.487901,1.265852 z"
       id="path497" />
  </g>
</svg>
