<?xml version="1.0" encoding="UTF-8" standalone="no"?>
<!-- Created with Inkscape (http://www.inkscape.org/) -->

<svg
   version="1.1"
   id="svg32"
   width="120"
   height="70.666664"
   viewBox="0 0 120 70.666664"
   xmlns="http://www.w3.org/2000/svg"
   xmlns:svg="http://www.w3.org/2000/svg">
  <defs
     id="defs36" />
  <g
     id="g38">
    <path
       style="fill:#000000;stroke-width:1.33333"
       d="M 67.666667,61.226532 C 64.398996,59.32329 64.7615,56.68137 68.63892,54.140787 72.39348,51.680706 76.511416,44.572844 75.309133,42.627508 74.282968,40.967137 53.286559,40.975725 38.789155,42.642441 26.354643,44.072 23.095173,46.058212 18.509811,54.999998 c -2.893824,5.643166 -7.122304,6.704981 -8.5675541,2.151401 -0.681189,-2.146237 0.7719121,-5.187194 5.8934021,-12.333333 3.738632,-5.216603 9.211745,-14.134734 12.162474,-19.818067 3.33705,-6.427416 6.181264,-10.333333 7.524538,-10.333333 1.715428,0 1.991264,0.891212 1.341197,4.333333 -2.017607,10.683277 -4.377815,9.677295 22.469465,9.577083 27.503319,-0.102662 31.94544,-1.378939 38.894214,-11.174799 4.118263,-5.805624 6.053003,-7.055914 9.105783,-5.884452 4.89471,1.878275 1.91752,7.141243 -12.717849,22.482168 -4.897244,5.133333 -10.472566,12.430671 -12.389608,16.216308 -1.91704,3.785636 -5.244728,8.135636 -7.394861,9.666667 -4.485444,3.193917 -4.108757,3.123276 -7.164345,1.343558 z"
       id="path358" />
  </g>
</svg>
