<?xml version="1.0" encoding="UTF-8" standalone="no"?>
<!-- Created with Inkscape (http://www.inkscape.org/) -->

<svg
   version="1.1"
   id="svg42"
   width="133.33333"
   height="78.666664"
   viewBox="0 0 133.33333 78.666664"
   xmlns="http://www.w3.org/2000/svg"
   xmlns:svg="http://www.w3.org/2000/svg">
  <defs
     id="defs46" />
  <g
     id="g48">
    <path
       style="fill:#000000;stroke-width:1.33333"
       d="M 74.666665,66.758995 C 72.099998,66.24511 65.818761,64.142536 60.70836,62.08661 47.142917,56.629202 37.64231,56.705574 27.837697,62.350849 19.648414,67.066051 17.080554,67.575222 14.877478,64.920676 13.286485,63.003649 19.880837,58.373831 48.057873,41.625109 64.992017,31.559279 67.617568,28.629111 58.478955,29.994968 54.084356,30.651784 50.104723,30.026604 42.163139,27.431836 36.3862,25.544326 30.564433,23.999999 29.225877,23.999999 c -4.68655,0 -8.720098,2.900877 -12.319604,8.860107 -3.742086,6.195281 -6.596513,7.027967 -7.3192751,2.135163 -0.6189051,-4.189735 5.6903201,-13.17223 12.0899211,-17.212516 8.459262,-5.34062 15.361571,-5.477821 31.108925,-0.618368 11.823464,3.648585 14.195277,3.977966 20.847922,2.89522 4.128661,-0.671956 11.757551,-3.421579 16.953085,-6.110272 C 96.564635,10.855827 100.88395,9.3967597 102.34997,9.9757431 105.96038,11.401618 96.51055,19.066095 76.300559,31.103656 58.460881,41.729401 53.774535,45.47781 55.281407,47.915981 c 0.481784,0.779543 2.568054,1.417351 4.636157,1.417351 2.068102,0 7.111504,1.534284 11.20756,3.40952 16.079063,7.361238 21.54154,5.592314 21.54154,-6.97584 0,-9.492947 2.992663,-10.756325 5.76485,-2.43368 3.687456,11.070475 -0.358212,20.157769 -10.300399,23.13652 -5.553589,1.663896 -6.496901,1.684154 -13.46445,0.289143 z M 111.42857,55.238093 c -4.51556,-4.515555 -0.94003,-15.238094 5.08128,-15.238094 3.64529,0 8.82348,5.158105 8.82348,8.789259 0,7.1706 -9.00609,11.347501 -13.90476,6.448835 z"
       id="path219" />
  </g>
</svg>
