<?xml version="1.0" encoding="UTF-8" standalone="no"?>
<!-- Created with Inkscape (http://www.inkscape.org/) -->

<svg
   version="1.1"
   id="svg52"
   width="109.33333"
   height="64"
   viewBox="0 0 109.33333 64"
   xmlns="http://www.w3.org/2000/svg"
   xmlns:svg="http://www.w3.org/2000/svg">
  <defs
     id="defs56" />
  <g
     id="g58">
    <path
       style="fill:#000000;stroke-width:1.33333"
       d="M 44.096772,51.153521 C 42.57688,49.221292 41.333332,46.902207 41.333332,46 c 0,-0.902207 1.243548,-3.221292 2.76344,-5.153521 C 49.38207,34.127309 59.999998,37.568104 59.999998,46 c 0,8.431896 -10.617928,11.872691 -15.903226,5.153521 z M 7.4540902,40.195389 C 6.7140347,38.997955 8.5668828,32.29584 11.194204,26.666667 c 0.855677,-1.833334 4.53703,-4.969318 8.180786,-6.968855 5.748551,-3.154557 8.146278,-3.639641 18.12404,-3.666667 7.127999,-0.01931 13.716776,0.761304 17.333332,2.053579 3.208867,1.146599 10.958159,2.427239 17.220648,2.845867 12.494833,0.835241 16.509659,-0.378138 22.512739,-6.803906 3.294463,-3.526431 7.295081,-4.5092345 8.752991,-2.150284 1.31865,2.133615 -5.319516,10.684754 -11.958884,15.40517 -8.807731,6.262068 -14.61299,6.64563 -41.582619,2.747433 -27.371511,-3.956287 -29.991872,-3.580592 -36.300961,5.204657 -4.5724919,6.367082 -4.9189592,6.646786 -6.0221858,4.861728 z"
       id="path80" />
  </g>
</svg>
