<?xml version="1.0" encoding="UTF-8" standalone="no"?>
<!-- Created with Inkscape (http://www.inkscape.org/) -->

<svg
   version="1.1"
   id="svg2"
   width="136"
   height="80"
   viewBox="0 0 136 80"
   xmlns="http://www.w3.org/2000/svg"
   xmlns:svg="http://www.w3.org/2000/svg">
  <defs
     id="defs6" />
  <g
     id="g8">
    <path
       style="fill:#000000;stroke-width:1.33333"
       d="m 26.666667,65.868172 c 0,-5.588137 3.810792,-12.041048 9.397113,-15.912371 4.672061,-3.237741 6.051533,-3.534944 13.568516,-2.92329 C 54.234533,47.406993 63.4,48.733784 70,49.980935 c 9.840128,1.859413 12.839951,1.976488 16.666667,0.650456 5.907546,-2.04708 10.247712,-5.975226 13.406293,-12.133611 2.57437,-5.019333 5.91733,-7.33754 7.31647,-5.073683 1.52254,2.463527 -0.94079,9.265192 -6.21717,17.166636 -3.976865,5.955402 -6.497785,8.313515 -10.225199,9.564835 -7.696758,2.583859 -24.966886,1.894492 -34.155794,-1.363387 -12.995468,-4.607473 -19.2723,-3.131049 -23.045312,5.420676 -2.701616,6.123348 -7.079288,7.146958 -7.079288,1.655315 z m 84.873313,-2.97316 c -4.76369,-5.263816 -1.20786,-16.228345 5.2629,-16.228345 3.91911,0 9.86379,5.471118 9.86379,9.07803 0,3.668703 -6.00702,9.588636 -9.72969,9.588636 -1.75469,0 -4.18334,-1.097244 -5.397,-2.438321 z M 9.6300083,60.591061 C 4.2655261,56.833632 6.7095279,48 13.113578,48 15.141111,48 17.52,48.72 18.4,49.6 c 2.265365,2.265365 1.984307,8.491884 -0.495239,10.971428 -2.636309,2.636311 -4.5325,2.640809 -8.2747527,0.01963 z M 25.731527,40.447831 c -1.290876,-3.363968 3.576836,-11.152808 10.038792,-16.063099 4.812832,-3.657159 6.914653,-4.382107 12.666666,-4.368907 3.792992,0.0087 10.126531,0.875548 14.074532,1.926322 19.317914,5.141521 27.990014,3.613154 34.392246,-6.061271 3.170607,-4.791117 10.051057,-8.6842091 12.582727,-7.119552 0.6491,0.4011633 1.18018,2.207458 1.18018,4.013988 0,4.21374 -11.506782,15.473549 -20.66667,20.223099 -8.259767,4.282821 -14.972031,4.407908 -29.631339,0.552198 -17.44416,-4.588185 -23.34369,-3.681182 -28.3086,4.35221 -3.227434,5.222098 -5.023996,5.944584 -6.328534,2.545012 z"
       id="path626" />
  </g>
</svg>
