<?xml version="1.0" encoding="UTF-8" standalone="no"?>
<!-- Created with Inkscape (http://www.inkscape.org/) -->

<svg
   version="1.1"
   id="svg12"
   width="114.66667"
   height="77.333336"
   viewBox="0 0 114.66667 77.333336"
   xmlns="http://www.w3.org/2000/svg"
   xmlns:svg="http://www.w3.org/2000/svg">
  <defs
     id="defs16" />
  <g
     id="g18">
    <path
       style="fill:#000000;stroke-width:1.33333"
       d="M 42.666668,67.679613 C 33.958473,65.365469 29.210226,58.486095 29.129517,48.066667 29.07125,40.544309 30.411833,37.663379 37.59847,29.866798 40.512769,26.705157 42.561735,23.575571 42.151727,22.912165 41.741719,22.248757 36.139849,21.287047 29.703129,20.775033 15.165931,19.618657 12,18.864847 12,16.559907 c 0,-1.393798 2.409687,-1.775694 10.333334,-1.637665 8.768684,0.152749 11.392267,-0.357697 17.326796,-3.371118 8.615349,-4.374681 10.263443,-4.394486 19.207476,-0.230815 7.937508,3.695108 21.302366,4.542796 29.048574,1.842453 3.525447,-1.228978 4.686837,-1.131175 6.353008,0.534996 1.829647,1.829647 1.715199,2.241969 -1.115141,4.017515 -1.734724,1.088237 -9.154045,2.669966 -16.487378,3.514956 -22.802457,2.627428 -23.763103,2.817892 -28.274004,5.605781 -4.972593,3.073232 -6.397445,6.890975 -6.143909,16.461971 0.422824,15.961672 16.578912,16.529033 24.216823,0.850435 1.210599,-2.48504 2.80109,-4.453693 3.534423,-4.374787 4.676086,0.503148 -1.820585,19.633408 -8.054736,23.71818 -5.612572,3.677499 -14.188613,5.540433 -19.278598,4.187804 z m 39.310889,-7.704412 c -3.621776,-4.002019 -1.397644,-12.090689 3.827899,-13.921205 3.348587,-1.173014 4.188976,-0.887184 7,2.380827 3.908071,4.543404 4.032299,7.49646 0.47594,11.313764 -3.398523,3.647886 -8.121935,3.742578 -11.303839,0.226614 z"
       id="path487" />
  </g>
</svg>
