<?xml version="1.0" encoding="UTF-8" standalone="no"?>
<!-- Created with Inkscape (http://www.inkscape.org/) -->

<svg
   version="1.1"
   id="svg22"
   width="86.666664"
   height="112"
   viewBox="0 0 86.666664 112"
   xmlns="http://www.w3.org/2000/svg"
   xmlns:svg="http://www.w3.org/2000/svg">
  <defs
     id="defs26" />
  <g
     id="g28">
    <path
       style="fill:#000000;stroke-width:1.33333"
       d="M 26.72971,100.74263 C 25.624173,99.41054 25.266286,93.770124 25.56645,82.409296 L 25.999999,66 17.333333,65.333333 C 10.814814,64.831909 8.6666664,64.17094 8.6666664,62.666667 c 0,-1.587302 1.9259256,-2 9.3333326,-2 h 9.333333 L 27.191675,49.63612 c -0.07791,-6.0668 -0.566645,-11.455533 -1.086076,-11.974964 -0.519429,-0.519431 -2.754308,0.09432 -4.966394,1.36388 -2.212088,1.269563 -5.623353,2.290107 -7.580592,2.267875 L 9.9999997,41.252488 14,37.872895 C 28.524364,25.60128 47.92418,11.9375 51.922866,11.162862 c 5.700922,-1.104399 10.704603,1.465416 13.277899,6.819329 1.665021,3.464186 1.59276,4.398318 -0.666667,8.618229 -3.575817,6.678519 -7.792337,7.020516 -9.845761,0.798579 -2.662277,-8.066779 -8.565566,-9.249726 -14.521497,-2.909927 -2.719605,2.894888 -2.895513,4.20696 -2.544222,18.977084 l 0.377381,15.867177 9.686916,0.753583 c 10.272054,0.799103 12.854,2.102647 12.091832,6.104791 -0.387471,2.03461 -1.892398,2.536022 -8.458373,2.818161 -14.770711,0.634693 -13.987042,-0.211513 -13.987042,15.103189 0,7.367574 -0.62111,14.556142 -1.380245,15.974593 -1.622216,3.03114 -6.938047,3.40864 -9.223377,0.65498 z M 56.999998,97.904033 C 54.983332,96.809973 53.333332,94.814912 53.333332,93.470561 53.333332,89.947256 58.417886,84 61.430105,84 c 6.614513,0 10.859822,11.657188 5.324214,14.619755 -3.401153,1.820245 -5.342361,1.677805 -9.754321,-0.715722 z"
       id="path348" />
  </g>
</svg>
