<?xml version="1.0" encoding="UTF-8" standalone="no"?>
<!-- Created with Inkscape (http://www.inkscape.org/) -->

<svg
   version="1.1"
   id="svg32"
   width="96"
   height="77.333336"
   viewBox="0 0 96 77.333336"
   xmlns="http://www.w3.org/2000/svg"
   xmlns:svg="http://www.w3.org/2000/svg">
  <defs
     id="defs36" />
  <g
     id="g38">
    <path
       style="fill:#000000;stroke-width:1.33333"
       d="m 75.539984,62.895014 c -5.359965,-5.922693 0.470844,-15.790442 7.201892,-12.188095 4.035039,2.159487 5.281532,6.619046 3.063367,10.95975 -2.21083,4.326347 -6.948554,4.893265 -10.265259,1.228345 z M 21.199701,61.925017 C 14.43592,59.841674 8,54.302037 8,50.563539 c 0,-3.766301 2.58775,-4.432619 5.765371,-1.48452 7.718229,7.160738 29.99977,8.78472 38.405677,2.799185 6.624133,-4.716798 3.197325,-6.544869 -12.26868,-6.544869 -7.207444,0 -16.015705,-0.624353 -19.573912,-1.387452 -5.475407,-1.174266 -7.030215,-2.249844 -10.118891,-7 -4.4780941,-6.886981 -3.9151477,-10.296102 2.88041,-17.443346 6.985898,-7.347436 14.925478,-10.669615 22.709384,-9.502346 13.1201,1.96748 18.18466,7.950675 11.556161,13.652271 -3.278173,2.819766 -3.945309,2.949027 -6.504184,1.260219 -1.568235,-1.035006 -3.044195,-3.494916 -3.279911,-5.466467 -0.807516,-6.754129 -9.024737,-7.294807 -17.311209,-1.139047 -3.756635,2.790688 -4.346511,3.972008 -4,8.010634 0.373284,4.350656 0.896057,4.882923 6.406451,6.522801 3.3,0.982071 10.36927,1.794693 15.709492,1.805825 10.865017,0.02265 17.546874,2.22264 20.782917,6.842738 4.75276,6.785515 0.814088,14.115708 -10.387257,19.331536 -7.839559,3.650436 -17.986455,4.056839 -27.572118,1.104316 z"
       id="path209" />
  </g>
</svg>
