<?xml version="1.0" encoding="UTF-8" standalone="no"?>
<!-- Created with Inkscape (http://www.inkscape.org/) -->

<svg
   version="1.1"
   id="svg42"
   width="84"
   height="89.333336"
   viewBox="0 0 84 89.333336"
   xmlns="http://www.w3.org/2000/svg"
   xmlns:svg="http://www.w3.org/2000/svg">
  <defs
     id="defs46" />
  <g
     id="g48">
    <path
       style="fill:#000000;stroke-width:1.33333"
       d="m 66.937119,79.65921 c -3.086675,-3.719216 -3.25246,-8.6772 -0.385996,-11.543664 3.46083,-3.460831 4.751876,-3.479212 8.115544,-0.115544 3.518949,3.518949 3.364036,6.09051 -0.60606,10.060607 -3.690682,3.69068 -5.120854,4.011629 -7.123488,1.598601 z M 16.333333,76.341352 c -6.05,-0.247058 -10.9999997,-0.813135 -10.9999997,-1.25795 0,-0.444816 1.9876936,-3.270551 4.417097,-6.279411 2.4294037,-3.008861 6.7156657,-9.670656 9.5250257,-14.803989 2.809361,-5.133334 7.882517,-13.233334 11.273679,-18.000001 13.223718,-18.58745 12.322578,-16.73447 9.417058,-19.363929 -2.129016,-1.926733 -3.988048,-2.165242 -10.932377,-1.402598 -4.601932,0.505396 -10.643003,1.587336 -13.4246,2.404311 -4.073926,1.19654 -5.425843,1.1169 -6.9517821,-0.409522 -4.2148886,-4.216222 -0.4372532,-5.183387 21.1038051,-5.40308 11.528701,-0.117579 21.359,0.183945 21.845109,0.670054 0.822548,0.822549 -3.580173,10.28944 -10.621205,22.838097 -1.64589,2.933334 -7.084136,11.487085 -12.084995,19.008337 -5.000857,7.521251 -8.884016,14.721251 -8.629241,16 0.406672,2.041136 1.761414,2.250499 11.096161,1.714806 18.808577,-1.079367 21.202272,-0.920534 21.668339,1.437799 0.754086,3.815728 -3.982975,4.183193 -36.702074,2.847076 z"
       id="path70" />
  </g>
</svg>
